<svg version="1.2" xmlns="http://www.w3.org/2000/svg" viewBox="0 0 596 400" width="596" height="400">
	<title>img1-svg</title>
	<style>
		.s0 { fill: #032034 } 
	</style>
	<path id="Layer" class="s0" d="m285.5 188.9c-2.5 5.1-4.9 9.9-7.5 15.1-6.9-6.5-14.2-12-24.5-10.7-6.8 0.8-12.3 3.7-16.7 8.9-8.3 9.9-7.9 24 1.3 33.5 5.9 6.1 13.4 9.6 21.6 7.1 7.1-2.2 13.6-6.7 20.4-10.1 2 3.4 4.7 8.1 7.5 12.8-16.1 18-42.5 19.5-59.8 3.3-16.9-15.7-17.9-42.5-2.1-59 16.5-17.3 42.7-17.7 59.8-0.9z"/>
	<path id="Layer" class="s0" d="m183 176.8h20.7v16.1h-20.5c0 5.4 0 10.3 0 15.2 0 4.8-0.1 9.7 0 14.5 0.1 12.6 7.8 20.5 20.4 21 2.3 0 4.6 0 7.3 0v15.5c-21.1 5.3-42.9-10.7-43.8-32.4-0.4-9.3-0.2-18.6-0.3-27.9 0-1.7 0-3.5 0-5.4-2.4-0.3-4.2-0.5-6.3-0.7v-15.7c2-0.2 3.8-0.3 6.1-0.6v-38.1h16.4z"/>
	<path id="Layer" class="s0" d="m376.7 257.7h-17.6v-34.1h9c0.5-10.1 0.7-20.1-4.9-28.2-5.3-7.6-4.4-15.6-4.4-24.1h17.6c0.2 1.2 0.4 2.7 0.6 4.7 15.7-7.9 30.8-6.4 45.7 2.9-2.5 5.3-4.9 10.5-7.3 15.8-4.1-1.7-7.9-3.6-11.8-4.9-13.5-4.4-28 5.4-27.1 19.4 0.9 14.4 0.2 28.9 0.2 43.4 0 1.6 0 3.2 0 5.1z"/>
	<path id="Layer" class="s0" d="m351.4 208.5h-57.3c0.5-11.7 14.2-22.6 28.4-22.8 14.4-0.1 28.1 10.6 28.9 22.8z"/>
	<path id="Layer" class="s0" d="m352.7 223.8c-0.6 10.9-15.1 22-29.1 22.6-13.8 0.6-28-10.2-29.5-22.6z"/>
</svg>